- 
http://www.Speed.Cd 
       
http://www.Speed.Cd      fast  and The Hottest Private Tracker on the net

(((--Submit for invite!!--)))

Please Seed back to make the speed Faster!!!

------------------nfo--------------------------
-                                                                                                     
       
     
     
       
       
     
     
                                         
                                         
                EXVID                    
                                         
         
                                         
         Filled the Archives             
                                         
         
                                         
                With:                    
                                         
         
                                         
                                    
     E240                           
                                    
     SP               (C) 2009      
                                         
     
     
     
                                                                                  
                                                                                   
                   Gettysburg.1993.DC.BDRip.XviD-EXViD                              
                                                                                   
                                                                                  
     
                                                                                               
EXViD aims to iNTERNAL those releases which have been lost in the archives.
EXViD aims to PRE non-internal releases which have poor sources and are likely skipped by others. 
http://www.imdb.com/title/tt0107007/
Subtitles: English
Date: 2011.09

Director: Ronald F. Maxwell

Genres: Drama | History | War

Plot:
The three day battle that was a turning point in the Civil War is shown from the perspectives
of both sides, highlighting the fight for Little Round Top, and Pickett's Charge. Other
focuses include Longstreet and Lee's relationship as they have differing strategic opinions,
Armistead fighting on the opposite side of his old friend Hancock, and the Chamberlain
brothers.

Cast:
Tom Berenger 	 ... 	 Lt. Gen. James Longstreet
Martin Sheen 	 ... 	 Gen. Robert E. Lee
Stephen Lang 	 ... 	 Maj. Gen. George E. Pickett
Jeff Daniels 	 ... 	 Col. Joshua Lawrence Chamberlain
Richard Jordan 	 ... 	 Brig. Gen. Lewis A. Armistead
Andrew Prine 	 ... 	 Brig. Gen. Richard B. Garnett
Cooper Huckabee 	 ... 	 Henry T. Harrison
Patrick Gorman 	 ... 	 Maj. Gen. John Bell Hood
Bo Brinkman 	 ... 	 Maj. Walter H. Taylor
James Lancaster 	 ... 	 Lt. Col. Arthur Fremantle
William Morgan Sheppard 	 ... 	 Maj. Gen. Isaac R. Trimble / Narrator
Kieran Mulroney 	 ... 	 Maj. G. Moxley Sorrel
James Patrick Stuart 	 ... 	 Col. E. Porter Alexander (as Patrick Stuart)
Tim Ruddy 	 ... 	 Maj. Charles Marshall
Royce D. Applegate 	 ... 	 Brig. Gen. James L. Kemper

Stats:
Format                           : AVI
Format/Info                      : Audio Video Interleave
Format profile                   : OpenDML
File size                        : 2.06 GiB
Duration                         : 4h 31mn
Overall bit rate                 : 1 087 Kbps
Writing application              : Nandub v1.0rc2
Writing library                  : Nandub build 1852/release

Video
ID                               : 0
Format                           : MPEG-4 Visual
Format profile                   : Advanced Simple@L5
Format settings, BVOP            : 2
Format settings, QPel            : No
Format settings, GMC             : No warppoints
Format settings, Matrix          : Default (H.263)
Codec ID                         : XVID
Codec ID/Hint                    : XviD
Duration                         : 4h 31mn
Bit rate                         : 949 Kbps
Width                            : 592 pixels
Height                           : 336 pixels
Display aspect ratio             : 16:9
Frame rate                       : 23.976 fps
Color space                      : YUV
Chroma subsampling               : 4:2:0
Bit depth                        : 8 bits
Scan type                        : Progressive
Compression mode                 : Lossy
Bits/(Pixel*Frame)               : 0.199
Stream size                      : 1.80 GiB (87%)
Writing library                  : XviD 64

Audio
ID                               : 1
Format                           : MPEG Audio
Format version                   : Version 1
Format profile                   : Layer 3
Mode                             : Joint stereo
Mode extension                   : MS Stereo
Codec ID                         : 55
Codec ID/Hint                    : MP3
Duration                         : 4h 31mn
Bit rate mode                    : Variable
Bit rate                         : 121 Kbps
Nominal bit rate                 : 128 Kbps
Channel(s)                       : 2 channels
Sampling rate                    : 48.0 KHz
Compression mode                 : Lossy
Stream size                      : 235 MiB (11%)
Alignment                        : Aligned on interleaves
Interleave, duration             : 24 ms (0.58 video frame)
Interleave, preload duration     : 145 ms
Writing library                  : LAME3.98r
Encoding settings                : -m j -V 4 -q 3 -lowpass 17 --abr 128




Release notes:
VCDVaULT did the THEATRiCAL cut, this is the DC (Blu-Ray exclusive and about 10 mins longer).

enjoy!

Looking for:
75TB+ Archives
DUTCH/FLEMiSH Archives
                                                                                                    
Greets: CRBS EPiSODE FiCO FLS iLS KLASSiGER LiPSYNC MADE NODLABS RUNNER SPRiNTER      
   

                                                                    ASCII DONE BY XX^NFO 2oo9